<?xml version="1.0" standalone="no"?>
<!DOCTYPE svg PUBLIC "-//W3C//DTD SVG 20010904//EN"
 "http://www.w3.org/TR/2001/REC-SVG-20010904/DTD/svg10.dtd">
<svg version="1.0" xmlns="http://www.w3.org/2000/svg"
 width="512.000000pt" height="512.000000pt" viewBox="0 0 512.000000 512.000000"
 preserveAspectRatio="xMidYMid meet">
<metadata>
Created by potrace 1.16, written by Peter Selinger 2001-2019
</metadata>
<g transform="translate(0.000000,512.000000) scale(0.100000,-0.100000)"
fill="#000000" stroke="none">
<path d="M2329 5106 c-527 -93 -965 -472 -1133 -979 -51 -156 -61 -226 -61
-447 0 -221 10 -291 61 -447 167 -503 604 -880 1123 -967 124 -21 358 -21 482
0 578 97 1040 544 1166 1127 26 119 26 458 -1 577 -124 567 -553 998 -1121
1126 -96 22 -414 28 -516 10z m309 -626 c32 -19 55 -59 66 -111 4 -19 15 -29
43 -37 50 -16 129 -75 153 -115 40 -66 15 -154 -55 -195 -51 -29 -99 -24 -162
17 -37 25 -57 31 -100 31 -58 0 -107 -19 -117 -45 -3 -9 -6 -32 -6 -50 0 -30
6 -38 43 -59 23 -14 93 -45 156 -70 143 -57 189 -84 239 -141 50 -57 81 -121
94 -198 30 -167 -69 -361 -225 -443 -52 -27 -57 -32 -63 -72 -9 -61 -41 -103
-97 -126 -47 -20 -47 -20 -94 0 -55 23 -93 71 -93 119 0 29 -3 32 -47 43 -73
19 -185 84 -210 122 -46 67 -20 170 51 204 52 25 96 20 170 -19 60 -31 76 -35
145 -35 91 0 134 21 163 80 45 88 11 141 -119 190 -151 56 -268 122 -322 180
-12 14 -35 48 -50 75 -23 44 -26 61 -26 150 0 93 2 105 33 167 36 74 120 159
177 179 31 12 35 17 35 49 0 101 127 165 218 110z"/>
<path d="M904 4371 c-180 -71 -342 -179 -489 -326 -210 -211 -352 -484 -400
-773 -23 -138 -16 -416 13 -542 137 -584 610 -1020 1202 -1110 108 -16 335
-14 448 6 118 20 265 65 352 109 94 47 323 217 309 229 -2 2 -52 13 -111 25
-59 11 -149 35 -200 51 -129 43 -355 157 -468 237 -122 87 -316 281 -403 403
-80 113 -194 339 -236 468 -63 191 -75 275 -76 522 0 302 24 427 140 713 9 22
3 22 -81 -12z"/>
<path d="M4130 4398 c0 -2 15 -42 34 -89 174 -431 156 -933 -48 -1364 -235
-496 -689 -851 -1225 -957 l-114 -22 44 -39 c187 -167 382 -262 620 -301 116
-20 334 -23 444 -7 315 47 592 187 820 416 199 198 322 420 387 695 29 126 36
404 13 542 -70 420 -337 800 -711 1013 -93 53 -264 126 -264 113z"/>
<path d="M2495 1708 c-95 -81 -258 -190 -358 -237 l-82 -39 -53 -529 c-30
-290 -56 -545 -59 -565 l-6 -38 -116 0 c-97 0 -121 -3 -145 -19 -46 -31 -66
-69 -66 -131 0 -62 20 -100 66 -131 28 -18 63 -19 884 -19 821 0 856 1 884 19
46 31 66 69 66 131 0 62 -20 100 -66 131 -24 16 -48 19 -145 19 l-116 0 -6 38
c-3 20 -29 275 -59 566 l-53 528 -75 38 c-41 21 -116 65 -166 98 -77 50 -122
85 -244 188 -13 10 -26 3 -85 -48z"/>
</g>
</svg>
