<?xml version="1.0" standalone="no"?>
<!DOCTYPE svg PUBLIC "-//W3C//DTD SVG 20010904//EN"
 "http://www.w3.org/TR/2001/REC-SVG-20010904/DTD/svg10.dtd">
<svg version="1.0" xmlns="http://www.w3.org/2000/svg"
 width="512.000000pt" height="512.000000pt" viewBox="0 0 512.000000 512.000000"
 preserveAspectRatio="xMidYMid meet">
<metadata>
Created by potrace 1.16, written by Peter Selinger 2001-2019
</metadata>
<g transform="translate(0.000000,512.000000) scale(0.100000,-0.100000)"
fill="#000000" stroke="none">
<path d="M1179 4596 c-125 -44 -198 -147 -199 -277 0 -87 22 -148 76 -208 73
-82 178 -114 284 -87 77 20 139 62 178 121 132 199 -11 466 -247 465 -31 -1
-72 -7 -92 -14z"/>
<path d="M1188 3940 c-157 -28 -281 -110 -369 -244 -54 -83 -79 -169 -86 -303
l-6 -113 541 0 542 0 0 98 c0 115 -19 204 -61 282 -64 120 -183 221 -304 259
-73 23 -193 33 -257 21z"/>
<path d="M2465 3847 c-126 -51 -187 -135 -193 -264 -6 -101 17 -163 82 -228
145 -145 387 -102 478 84 29 58 31 185 4 244 -23 52 -91 124 -141 150 -49 25
-183 33 -230 14z"/>
<path d="M2445 3170 c-260 -56 -425 -272 -425 -557 l0 -83 308 0 c169 0 412 3
540 7 l232 6 0 71 c-1 257 -135 459 -358 537 -64 23 -231 34 -297 19z"/>
<path d="M960 1905 l0 -1175 -160 0 -160 0 0 -110 0 -110 1920 0 1920 0 0 110
0 110 -160 0 -160 0 0 320 0 320 -320 0 -320 0 0 -320 0 -320 -320 0 -320 0 0
805 0 805 -320 0 -320 0 0 -805 0 -805 -320 0 -320 0 0 1175 0 1175 -320 0
-320 0 0 -1175z"/>
<path d="M3747 2866 c-128 -48 -204 -164 -195 -301 19 -297 409 -384 553 -124
27 49 30 63 30 144 0 69 -4 98 -19 125 -59 111 -138 162 -256 167 -48 2 -89
-2 -113 -11z"/>
<path d="M3768 2208 c-276 -33 -467 -264 -468 -565 l0 -73 542 0 541 0 -6 103
c-3 56 -13 127 -23 157 -79 266 -306 412 -586 378z"/>
</g>
</svg>
