<?xml version="1.0" standalone="no"?>
<!DOCTYPE svg PUBLIC "-//W3C//DTD SVG 20010904//EN"
 "http://www.w3.org/TR/2001/REC-SVG-20010904/DTD/svg10.dtd">
<svg version="1.0" xmlns="http://www.w3.org/2000/svg"
 width="512.000000pt" height="512.000000pt" viewBox="0 0 512.000000 512.000000"
 preserveAspectRatio="xMidYMid meet">
<metadata>
Created by potrace 1.16, written by Peter Selinger 2001-2019
</metadata>
<g transform="translate(0.000000,512.000000) scale(0.100000,-0.100000)"
fill="#000000" stroke="none">
<path d="M2406 5105 c-188 -52 -350 -210 -408 -400 -33 -106 -30 -243 7 -354
129 -380 587 -521 910 -278 236 177 300 510 148 766 -74 124 -214 229 -353
266 -68 18 -237 18 -304 0z m295 -257 c70 -32 129 -90 165 -160 39 -76 45
-190 13 -273 -48 -128 -180 -217 -319 -217 -139 0 -271 89 -319 217 -54 142
-2 316 118 399 104 72 233 85 342 34z"/>
<path d="M2385 3834 c-11 -3 -54 -11 -95 -19 -121 -23 -254 -71 -409 -148
-179 -87 -256 -156 -314 -277 -45 -96 -57 -156 -57 -289 0 -100 2 -112 31
-170 17 -33 45 -72 63 -86 76 -58 31 -55 960 -55 l854 0 53 28 c59 30 111 95
129 160 13 49 13 217 -1 284 -20 96 -75 197 -148 268 -56 56 -90 77 -211 137
-145 72 -273 119 -405 149 -68 16 -404 29 -450 18z m356 -250 c126 -24 232
-60 367 -125 203 -98 255 -166 256 -334 l1 -90 -805 0 -805 0 1 90 c1 161 50
230 229 322 261 133 525 181 756 137z"/>
<path d="M2478 2531 l-33 -29 -5 -350 -5 -350 -281 -225 c-155 -124 -284 -232
-288 -242 -11 -31 -6 -100 10 -123 32 -46 109 -66 157 -41 12 7 133 101 269
210 136 110 252 199 258 199 6 0 122 -89 258 -199 136 -109 257 -203 269 -210
48 -25 125 -5 157 41 23 32 21 109 -3 139 -10 13 -141 121 -289 239 l-271 215
-3 348 -3 349 -33 29 c-26 24 -41 29 -82 29 -41 0 -56 -5 -82 -29z"/>
<path d="M892 2310 c-101 -27 -164 -63 -249 -144 -242 -228 -243 -601 -4 -836
127 -125 264 -177 441 -167 155 9 277 63 385 171 108 109 165 251 165 411 0
164 -57 302 -171 417 -73 73 -190 137 -287 157 -79 16 -198 12 -280 -9z m291
-253 c74 -34 137 -94 173 -164 26 -51 29 -68 29 -148 0 -83 -2 -95 -34 -153
-103 -190 -322 -245 -498 -126 -105 72 -168 214 -144 331 28 143 126 249 258
283 61 15 155 5 216 -23z"/>
<path d="M3932 2316 c-201 -49 -374 -220 -426 -422 -20 -79 -20 -219 0 -298
24 -92 81 -193 149 -262 106 -107 230 -162 385 -171 178 -10 314 42 441 167
184 181 229 433 118 669 -31 67 -54 98 -116 160 -43 42 -101 89 -130 104 -114
60 -295 83 -421 53z m283 -260 c101 -46 172 -140 196 -259 24 -117 -39 -259
-144 -331 -176 -119 -395 -64 -498 126 -32 58 -34 70 -34 153 0 79 3 97 28
145 88 172 283 244 452 166z"/>
<path d="M835 1034 c-267 -47 -584 -190 -697 -313 -100 -110 -138 -219 -138
-400 0 -111 3 -132 24 -176 25 -55 81 -110 132 -131 28 -12 186 -14 892 -14
l858 0 53 26 c106 53 147 150 138 329 -9 206 -89 352 -245 452 -81 52 -261
136 -372 172 -199 66 -457 88 -645 55z m375 -239 c122 -20 271 -70 396 -133
143 -72 177 -100 213 -174 32 -65 50 -172 37 -222 l-6 -26 -803 2 -802 3 0 95
c1 83 4 102 27 146 38 72 89 113 219 177 264 129 485 169 719 132z"/>
<path d="M3845 1030 c-249 -44 -562 -184 -675 -302 -91 -93 -140 -215 -147
-369 -9 -176 28 -271 129 -328 l53 -31 863 0 c709 0 868 2 896 14 51 21 107
76 132 131 21 44 24 65 24 170 0 307 -112 454 -464 606 -276 119 -550 156
-811 109z m483 -254 c169 -42 390 -143 460 -209 19 -18 46 -54 60 -82 23 -43
26 -62 27 -145 l0 -95 -802 -3 -803 -2 -6 26 c-13 50 5 157 37 222 36 74 70
102 213 174 119 60 273 113 387 133 121 21 296 13 427 -19z"/>
</g>
</svg>
