<?xml version="1.0" standalone="no"?>
<!DOCTYPE svg PUBLIC "-//W3C//DTD SVG 20010904//EN"
 "http://www.w3.org/TR/2001/REC-SVG-20010904/DTD/svg10.dtd">
<svg version="1.0" xmlns="http://www.w3.org/2000/svg"
 width="512.000000pt" height="512.000000pt" viewBox="0 0 512.000000 512.000000"
 preserveAspectRatio="xMidYMid meet">
<metadata>
Created by potrace 1.16, written by Peter Selinger 2001-2019
</metadata>
<g transform="translate(0.000000,512.000000) scale(0.100000,-0.100000)"
fill="#000000" stroke="none">
<path d="M2330 5105 c-432 -76 -803 -355 -996 -750 -56 -116 -105 -272 -123
-392 -6 -39 -11 -134 -11 -210 0 -219 39 -390 135 -588 81 -169 207 -331 349
-450 l48 -41 -113 -43 c-332 -127 -626 -319 -890 -581 -350 -349 -574 -740
-695 -1215 -33 -130 -36 -148 -32 -255 4 -99 9 -126 36 -195 74 -187 224 -319
417 -370 51 -13 175 -15 914 -15 851 0 855 0 899 21 26 13 54 38 70 62 23 35
27 51 27 117 0 66 -4 82 -27 117 -16 24 -44 49 -70 62 -44 21 -50 21 -840 21
-493 0 -816 4 -849 10 -61 11 -89 29 -133 83 -42 53 -46 121 -12 252 157 619
596 1151 1180 1431 482 230 999 280 1511 144 150 -40 256 -80 415 -156 131
-64 137 -65 202 -62 56 3 73 8 105 34 103 82 110 236 13 318 -44 37 -219 123
-358 177 l-114 44 48 40 c142 119 268 281 349 450 96 198 135 369 135 588 0
162 -11 244 -51 387 -102 362 -368 677 -714 846 -116 56 -272 105 -392 123
-96 15 -340 12 -433 -4z m480 -424 c327 -95 576 -345 672 -677 20 -69 23 -100
22 -249 0 -156 -2 -177 -28 -260 -101 -330 -358 -576 -694 -661 -134 -34 -310
-34 -444 0 -335 85 -593 331 -694 661 -26 83 -28 104 -28 260 -1 149 2 180 22
249 102 354 374 611 728 690 102 23 344 16 444 -13z"/>
<path d="M4375 2166 c-73 -33 -115 -100 -115 -186 0 -82 21 -115 156 -247
l124 -123 -605 0 c-661 0 -671 -1 -815 -59 -146 -60 -298 -191 -379 -328 -77
-132 -111 -257 -111 -418 0 -239 67 -401 235 -571 148 -150 305 -221 507 -231
96 -5 110 -4 153 17 129 62 144 268 24 347 -26 17 -65 29 -126 38 -118 19
-143 27 -207 70 -66 43 -106 92 -144 172 -24 51 -27 70 -27 158 0 91 3 106 31
165 39 83 111 155 194 194 l65 31 604 3 605 2 -127 -129 c-70 -71 -134 -145
-142 -165 -37 -88 -7 -201 66 -252 48 -33 134 -43 195 -24 54 17 477 440 521
520 44 80 63 156 63 253 0 105 -25 193 -79 273 -54 80 -447 469 -494 489 -44
18 -131 19 -172 1z"/>
</g>
</svg>
