<?xml version="1.0" standalone="no"?>
<!DOCTYPE svg PUBLIC "-//W3C//DTD SVG 20010904//EN"
 "http://www.w3.org/TR/2001/REC-SVG-20010904/DTD/svg10.dtd">
<svg version="1.0" xmlns="http://www.w3.org/2000/svg"
 width="512.000000pt" height="512.000000pt" viewBox="0 0 512.000000 512.000000"
 preserveAspectRatio="xMidYMid meet">
<metadata>
Created by potrace 1.16, written by Peter Selinger 2001-2019
</metadata>
<g transform="translate(0.000000,512.000000) scale(0.100000,-0.100000)"
fill="#000000" stroke="none">
<path d="M2105 5044 c-113 -20 -314 -76 -431 -120 -745 -278 -1317 -896 -1539
-1660 -31 -107 -75 -319 -75 -363 l0 -31 213 0 214 0 22 112 c62 311 224 651
427 899 70 85 218 233 303 303 249 203 589 365 902 428 l109 21 0 214 0 213
-32 -1 c-18 0 -69 -7 -113 -15z"/>
<path d="M2870 4848 l0 -215 112 -22 c242 -49 526 -167 733 -306 472 -316 794
-798 901 -1347 l17 -88 215 0 215 0 -7 61 c-17 165 -101 457 -191 661 -242
552 -721 1031 -1273 1273 -204 90 -496 174 -661 191 l-61 7 0 -215z"/>
<path d="M2351 4429 c-323 -34 -665 -172 -936 -377 -88 -67 -258 -235 -330
-327 -533 -680 -539 -1620 -17 -2310 67 -88 235 -258 327 -330 574 -450 1354
-531 1999 -209 307 154 564 384 749 670 430 666 387 1546 -107 2177 -82 105
-269 286 -373 360 -385 275 -842 395 -1312 346z m649 -844 l435 -435 -143
-142 -142 -143 -295 295 -295 295 -295 -295 -295 -295 -142 143 -143 142 435
435 c239 239 437 435 440 435 3 0 201 -196 440 -435z m-1475 -885 l140 -140
-143 -143 -142 -142 -142 142 -143 143 140 140 c77 77 142 140 145 140 3 0 68
-63 145 -140z m1180 0 l140 -140 -143 -143 -142 -142 -142 142 -143 143 140
140 c77 77 142 140 145 140 3 0 68 -63 145 -140z m1180 0 l140 -140 -143 -143
-142 -142 -142 142 -143 143 140 140 c77 77 142 140 145 140 3 0 68 -63 145
-140z m-1618 -742 l293 -293 295 295 295 295 142 -143 143 -142 -438 -438
-437 -437 -437 437 -438 438 140 140 c77 77 142 140 145 140 3 0 137 -132 297
-292z"/>
<path d="M64 2189 c10 -98 54 -284 101 -425 251 -757 846 -1352 1600 -1599
142 -47 328 -91 424 -101 l61 -7 0 215 0 215 -111 22 c-456 91 -903 362 -1203
730 -203 248 -365 589 -427 899 l-22 112 -215 0 -215 0 7 -61z"/>
<path d="M4616 2163 c-164 -837 -823 -1496 -1658 -1659 l-88 -17 0 -215 0
-215 61 7 c98 10 284 54 425 101 757 251 1348 842 1599 1599 47 141 91 327
101 425 l7 61 -215 0 -215 0 -17 -87z"/>
</g>
</svg>
